<?xml version="1.0" standalone="no"?>
<!DOCTYPE svg PUBLIC "-//W3C//DTD SVG 20010904//EN"
 "http://www.w3.org/TR/2001/REC-SVG-20010904/DTD/svg10.dtd">
<svg version="1.0" xmlns="http://www.w3.org/2000/svg"
 width="329.000000pt" height="329.000000pt" viewBox="0 0 329.000000 329.000000"
 preserveAspectRatio="xMidYMid meet">

<g transform="translate(0.000000,329.000000) scale(0.100000,-0.100000)"
fill="#000000" stroke="none">
<path d="M2447 3263 c-10 -17 -26 -124 -20 -139 3 -8 15 -14 26 -12 14 2 21
12 23 35 2 18 8 50 13 72 5 22 6 42 3 46 -8 8 -40 6 -45 -2z"/>
<path d="M2148 3236 c-9 -22 -6 -32 22 -78 50 -79 61 -90 77 -77 20 17 16 34
-19 99 -41 74 -64 90 -80 56z"/>
<path d="M2672 3089 c-62 -53 -71 -64 -59 -76 31 -31 157 56 154 106 -1 13 -7
26 -12 28 -6 2 -43 -25 -83 -58z"/>
<path d="M1670 3059 c-52 -10 -117 -23 -145 -28 -27 -5 -104 -21 -170 -36 -66
-15 -139 -31 -162 -36 -23 -4 -68 -15 -100 -23 -32 -8 -92 -19 -133 -26 -41
-6 -138 -25 -215 -41 -77 -17 -171 -36 -210 -44 -186 -35 -237 -56 -310 -129
-36 -36 -58 -69 -67 -98 -21 -73 -14 -199 20 -343 39 -163 59 -265 77 -380 8
-49 21 -117 29 -150 9 -33 18 -76 21 -95 3 -19 19 -93 35 -165 54 -240 110
-509 130 -635 39 -235 80 -310 210 -375 52 -26 74 -44 96 -80 16 -25 35 -43
42 -40 6 2 12 0 12 -5 0 -6 7 -10 15 -10 8 0 15 -4 15 -9 0 -21 64 -50 125
-56 55 -6 130 -16 145 -20 17 -5 206 -32 265 -39 22 -2 72 -9 110 -15 39 -6
126 -17 195 -26 69 -9 175 -22 235 -30 61 -8 148 -17 195 -21 107 -8 135 -11
185 -19 133 -23 219 -12 297 39 26 16 45 32 43 35 -3 2 4 10 15 18 43 30 70
99 85 213 1 8 6 40 10 70 4 30 9 64 11 75 1 11 3 20 4 20 2 0 4 9 5 20 2 11
17 114 33 230 17 116 33 237 37 270 3 33 8 73 11 89 5 22 3 27 -7 20 -11 -6
-12 -5 -2 7 18 23 33 99 19 99 -8 0 -8 2 0 8 6 4 14 34 18 67 4 33 11 89 16
125 24 155 41 289 46 345 8 102 20 193 34 265 23 115 18 220 -12 254 -12 14
-10 28 3 21 6 -4 -1 16 -15 43 -61 120 -187 164 -564 197 -18 2 -36 6 -39 9
-4 3 0 27 8 52 13 41 19 49 59 64 72 28 92 100 41 151 -24 24 -35 28 -69 25
-91 -10 -122 -56 -86 -132 15 -31 15 -37 0 -68 -9 -19 -16 -39 -16 -44 0 -6
-6 -17 -14 -25 -12 -11 -27 -12 -78 -5 -79 12 -90 19 -94 54 -7 72 -16 114
-25 119 -5 4 -9 17 -9 29 0 13 -9 44 -20 69 -63 143 -181 187 -390 146z m173
-87 c-2 -7 8 -12 23 -12 16 0 23 -4 18 -12 -5 -7 -3 -8 5 -3 15 9 42 -19 69
-72 22 -42 64 -194 57 -202 -3 -2 -58 3 -122 12 -168 24 -406 56 -492 67 -171
22 -344 -60 -400 -190 -12 -27 -28 -98 -36 -158 -7 -59 -16 -121 -19 -137 -3
-17 -10 -68 -16 -115 -6 -47 -15 -114 -20 -150 -6 -36 -20 -153 -31 -260 -11
-107 -24 -229 -29 -270 -4 -41 -11 -113 -15 -160 -3 -47 -10 -98 -15 -115 -7
-25 -31 -195 -45 -320 -2 -16 -9 -64 -15 -105 -7 -41 -15 -102 -18 -135 -9
-76 -27 -82 -81 -28 -38 37 -71 116 -71 167 0 25 -29 166 -36 178 -3 4 -21 80
-39 169 -19 88 -37 164 -39 168 -3 4 -8 29 -12 56 -3 27 -8 59 -10 70 -2 11
-8 47 -14 80 -15 87 -15 89 -21 100 -3 6 -4 20 -3 33 0 12 -4 22 -9 22 -8 0
-8 3 0 11 12 12 5 52 -8 43 -5 -3 -9 0 -9 5 0 6 4 11 9 11 4 0 -5 55 -21 123
-15 67 -31 136 -34 152 -3 17 -8 37 -12 45 -3 8 -7 26 -8 40 -5 58 -17 109
-24 105 -4 -3 -8 5 -7 18 0 12 -9 71 -21 130 -12 59 -22 122 -22 139 0 53 22
108 59 148 42 45 136 81 276 105 137 24 228 45 242 57 9 7 13 7 13 0 0 -9 58
0 100 15 8 4 19 5 23 4 8 -1 47 5 182 29 33 6 76 13 95 16 19 3 47 12 62 20
15 8 31 13 35 12 16 -4 73 14 73 23 0 5 5 9 11 9 5 0 7 -5 3 -11 -4 -7 0 -9
12 -6 11 3 34 8 52 12 19 4 30 11 25 18 -4 7 0 8 11 4 19 -8 92 10 114 27 8 5
55 11 105 12 109 3 107 3 82 15 l-20 9 20 -3 c11 -2 19 -9 18 -15z m585 -141
c-4 -33 -42 -42 -57 -12 -9 16 -7 23 10 35 29 20 51 10 47 -23z m-1653 -51
c-3 -5 -11 -10 -16 -10 -6 0 -7 5 -4 10 3 6 11 10 16 10 6 0 7 -4 4 -10z m-80
-20 c-3 -5 -14 -10 -23 -10 -15 0 -15 2 -2 10 20 13 33 13 25 0z m820 -131 c0
-3 50 -10 100 -13 28 -2 58 -7 68 -11 10 -4 21 -5 24 -1 3 3 12 1 19 -5 7 -6
19 -7 26 -3 21 13 88 15 88 3 0 -6 -9 -9 -20 -6 -11 3 -20 1 -20 -4 0 -5 9 -9
19 -9 11 0 27 -3 37 -7 14 -5 16 -3 11 12 -7 16 -6 16 15 3 13 -9 49 -16 83
-16 65 -2 184 -21 200 -33 9 -7 56 -13 175 -24 25 -2 45 -5 45 -6 0 -5 71 -12
138 -13 61 -1 77 -4 77 -16 0 -12 2 -12 9 -1 6 8 16 11 31 6 28 -9 34 -10 88
-20 23 -4 42 -11 42 -15 0 -4 11 -11 25 -14 43 -11 82 -64 100 -137 9 -38 14
-73 10 -79 -4 -6 -2 -17 5 -25 9 -10 8 -21 -4 -44 -9 -16 -13 -37 -10 -45 4
-9 2 -22 -4 -29 -9 -11 -19 -62 -28 -132 -2 -16 -8 -73 -14 -125 -6 -52 -20
-153 -30 -225 -20 -140 -32 -225 -35 -265 -1 -14 -10 -74 -19 -135 -10 -60
-19 -139 -22 -175 -3 -36 -10 -83 -15 -104 -6 -22 -15 -74 -19 -115 -5 -42
-14 -109 -20 -150 -6 -41 -9 -84 -6 -97 3 -12 2 -24 -3 -26 -5 -2 -11 -30 -15
-63 -4 -33 -11 -78 -17 -100 -6 -22 -12 -49 -13 -59 -1 -11 -24 -41 -51 -67
-58 -57 -100 -69 -220 -62 -44 3 -101 6 -127 7 -25 0 -44 5 -41 10 3 4 -13 6
-36 3 -22 -2 -41 -1 -41 2 0 4 -8 7 -17 8 -10 1 -31 4 -48 7 -43 9 -92 15
-155 20 -30 2 -62 7 -70 10 -12 4 -70 8 -260 18 -8 1 -19 7 -25 14 -5 7 -33
14 -62 16 -44 3 -50 1 -40 -12 6 -8 1 -6 -11 4 -13 11 -30 21 -40 21 -9 1 -48
5 -87 9 -38 4 -77 9 -85 11 -8 2 -51 6 -96 10 -44 3 -89 7 -100 10 -74 17 -95
25 -123 46 -18 13 -35 38 -41 58 -20 74 -9 270 36 611 9 63 17 126 18 140 2
14 10 63 19 110 9 47 21 132 27 190 7 58 16 127 21 153 5 26 9 78 9 115 0 61
10 133 40 296 6 33 8 66 5 74 -3 8 -1 20 4 26 11 13 33 244 25 257 -3 5 0 9 5
9 6 0 11 13 11 28 0 39 34 105 70 135 19 17 25 27 17 31 -6 3 -1 3 13 1 14 -3
41 -1 60 5 27 7 275 6 275 -1z m1114 -58 c10 -7 7 -9 -12 -8 -14 1 -23 5 -20
10 6 9 15 9 32 -2z m-1692 -923 c-3 -8 -6 -5 -6 6 -1 11 2 17 5 13 3 -3 4 -12
1 -19z m1893 -617 c0 -6 -4 -13 -10 -16 -5 -3 -10 1 -10 9 0 9 5 16 10 16 6 0
10 -4 10 -9z m-30 -201 c0 -5 -5 -10 -11 -10 -5 0 -7 5 -4 10 3 6 8 10 11 10
2 0 4 -4 4 -10z m-10 -40 c0 -5 -2 -10 -4 -10 -3 0 -8 5 -11 10 -3 6 -1 10 4
10 6 0 11 -4 11 -10z m-13 -102 c-3 -7 -5 -2 -5 12 0 14 2 19 5 13 2 -7 2 -19
0 -25z m-1240 -424 c-3 -3 -12 -4 -19 -1 -8 3 -5 6 6 6 11 1 17 -2 13 -5z
m1048 -139 c-16 -14 -34 -25 -39 -25 -12 0 -3 9 31 31 40 25 43 22 8 -6z"/>
<path d="M1721 2143 c-82 -21 -164 -69 -224 -133 -68 -71 -91 -133 -91 -245
-1 -71 3 -88 31 -145 34 -69 66 -105 123 -139 104 -60 173 -94 240 -118 41
-14 92 -34 112 -44 21 -11 45 -19 54 -19 10 0 39 -22 66 -50 41 -42 48 -55 48
-88 0 -48 -32 -98 -80 -126 -52 -31 -184 -29 -260 4 -109 46 -143 86 -155 181
l-6 45 -125 18 c-96 14 -129 15 -137 7 -17 -17 -17 -158 -1 -204 7 -21 20 -45
29 -53 8 -9 18 -26 21 -40 15 -60 130 -139 268 -186 50 -17 112 -32 138 -34
27 -1 52 -6 58 -9 5 -3 10 -1 10 4 0 6 5 11 11 11 5 0 7 -5 3 -12 -5 -8 20 -9
97 -5 83 5 120 13 186 38 45 18 95 44 110 59 90 86 123 145 127 225 2 30 6 58
10 62 11 11 6 24 -6 17 -10 -6 -10 -5 -1 7 8 9 10 31 7 55 -13 91 -59 167
-139 229 -59 46 -202 120 -280 145 -79 26 -185 82 -204 109 -55 77 -21 163 75
190 51 14 179 -6 227 -36 52 -33 63 -46 77 -103 7 -25 14 -53 17 -62 3 -14 15
-18 51 -18 26 0 63 -4 82 -9 45 -12 123 -21 116 -14 -3 3 2 12 11 21 22 22 13
130 -18 212 -54 145 -233 245 -459 256 -47 3 -103 6 -125 8 -23 2 -65 -3 -94
-11z m33 -1352 c4 -5 -3 -7 -14 -4 -23 6 -26 13 -6 13 8 0 17 -4 20 -9z"/>
</g>
</svg>
