<svg xmlns="http://www.w3.org/2000/svg" viewBox="0 0 1080 1080" width="1080" height="1080"><defs></defs><g>
<g>
	<g>
		<g transform="matrix(2.53399038,0,0,2.53399038,-806.058901669,-819.292179391)">
			<g>
				<g>
					<path d="M647.433334,324.266657C646.100001,326.533324 643.966668,340.799989 644.766668,342.799989 C645.166668,343.866656 646.766668,344.666656 648.233334,344.399989 C650.100001,344.133322 651.033334,342.799989 651.300001,339.733323 C651.566667,337.333323 652.366667,333.066656 653.033334,330.133323 C653.700001,327.19999 653.833334,324.533324 653.433334,323.99999 C652.366667,322.933324 648.100001,323.19999 647.433334,324.266657 C647.433334,324.266657 647.433334,324.266657 647.433334,324.266657 Z" fill="#ffffff"/>
				</g>
				<g>
					<path d="M607.56667,327.866657C606.36667,330.79999 606.76667,332.133323 610.500003,338.266656 C617.166669,348.799989 618.633336,350.266655 620.766669,348.533322 C623.433336,346.266656 622.900002,343.999989 618.233336,335.333323 C612.76667,325.466657 609.700003,323.333324 607.56667,327.866657 C607.56667,327.866657 607.56667,327.866657 607.56667,327.866657 Z" fill="#ffffff"/>
				</g>
				<g>
					<path d="M677.433332,347.466656C669.166666,354.533322 667.966666,355.999988 669.566666,357.599988 C673.699999,361.733321 690.499998,350.133322 690.099998,343.466656 C689.966665,341.733323 689.166665,339.999989 688.499998,339.733323 C687.699998,339.466656 682.766665,343.066656 677.433332,347.466656 C677.433332,347.466656 677.433332,347.466656 677.433332,347.466656 Z" fill="#ffffff"/>
				</g>
				<g>
					<path d="M543.83334,351.466655C536.900007,352.799989 528.233341,354.533322 524.500008,355.199988 C520.900008,355.866655 510.633342,357.999988 501.833343,359.999988 C493.033343,361.999988 483.300011,364.133321 480.233344,364.799988 C477.166678,365.333321 471.166678,366.799988 466.900012,367.866654 C462.633345,368.933321 454.633346,370.399988 449.166679,371.333321 C443.700013,372.133321 430.76668,374.666654 420.500014,376.799987 C410.233348,379.066654 397.700016,381.599987 392.500016,382.666654 C367.700018,387.33332 360.900018,390.13332 351.166685,399.866652 C346.366686,404.666652 343.433352,409.066652 342.233352,412.933318 C339.433353,422.666651 340.366686,439.46665 344.900019,458.666649 C350.100019,480.399981 352.766685,493.99998 355.166685,509.333313 C356.233352,515.866646 357.966685,524.933312 359.033351,529.333311 C360.233351,533.733311 361.433351,539.466644 361.833351,541.999977 C362.233351,544.533311 364.366684,554.399977 366.500018,563.999976 C373.700017,595.999974 381.166683,631.866639 383.83335,648.666638 C389.03335,679.999969 394.500016,689.999969 411.833348,698.666635 C418.766681,702.133301 421.700014,704.533301 424.633348,709.333301 C426.766681,712.666634 429.300014,715.066634 430.233347,714.666634 C431.033347,714.399967 431.833347,714.666634 431.833347,715.3333 C431.833347,716.1333 432.76668,716.666634 433.833347,716.666634 C434.900014,716.666634 435.833347,717.199967 435.833347,717.866634 C435.833347,720.666633 444.36668,724.5333 452.500013,725.3333 C459.833345,726.1333 469.833345,727.466633 471.833345,727.999966 C474.100011,728.666633 499.30001,732.266633 507.166676,733.199966 C510.100009,733.466633 516.766675,734.399966 521.833342,735.199966 C527.033341,735.999966 538.633341,737.466632 547.83334,738.666632 C557.03334,739.866632 571.166672,741.599965 579.166672,742.666632 C587.300004,743.733299 598.900004,744.933299 605.16667,745.466632 C619.433336,746.533298 623.166669,746.933298 629.833335,747.999965 C647.566668,751.066632 659.033334,749.599965 669.433333,742.799965 C672.899999,740.666632 675.433333,738.533299 675.166666,738.133299 C674.766666,737.866632 675.699999,736.799966 677.166666,735.733299 C682.899999,731.733299 686.499999,722.5333 688.499998,707.333301 C688.633332,706.266634 689.299998,701.999968 689.833332,697.999968 C690.366665,693.999968 691.033332,689.466635 691.299998,687.999969 C691.433332,686.533302 691.699998,685.333302 691.833332,685.333302 C692.099998,685.333302 692.366665,684.133302 692.499998,682.666636 C692.766665,681.199969 694.766665,667.466637 696.899998,651.999971 C699.166664,636.533305 701.299998,620.399973 701.833331,615.999973 C702.233331,611.599973 702.899998,606.26664 703.299998,604.133307 C703.966664,601.199974 703.699998,600.533307 702.366664,601.46664 C700.899998,602.26664 700.766664,602.133307 702.099998,600.533307 C704.499997,597.466641 706.499997,587.333308 704.633331,587.333308 C703.566664,587.333308 703.566664,587.066641 704.633331,586.266641 C705.433331,585.733308 706.499997,581.733308 707.033331,577.333309 C707.566664,572.933309 708.499997,565.466643 709.166664,560.666643 C712.366664,539.999977 714.63333,522.133312 715.299997,514.666646 C716.366663,501.066646 717.966663,488.933314 719.83333,479.333314 C722.899996,463.999982 722.23333,449.999983 718.23333,445.46665 C716.63333,443.599983 716.899997,441.733317 718.63333,442.66665 C719.43333,443.199983 718.499997,440.533317 716.63333,436.933317 C708.499997,420.933318 691.699998,415.066652 641.433335,410.666652 C639.033335,410.399985 636.633335,409.866652 636.233335,409.466652 C635.700002,409.066652 636.233335,405.866652 637.300002,402.533319 C639.033335,397.066653 639.833335,395.999986 645.166668,393.999986 C654.766667,390.266653 657.433334,380.666654 650.633334,373.866654 C647.433334,370.666654 645.966668,370.133321 641.433335,370.533321 C629.300002,371.866654 625.166669,377.999987 629.966669,388.13332 C631.966668,392.266653 631.966668,393.066653 629.966669,397.199986 C628.766669,399.733319 627.833335,402.399986 627.833335,403.066652 C627.833335,403.866652 627.033335,405.333319 625.966669,406.399985 C624.366669,407.866652 622.366669,407.999985 615.566669,407.066652 C605.033337,405.466652 603.56667,404.533319 603.033337,399.866652 C602.100004,390.266653 600.900004,384.666653 599.700004,383.999987 C599.033337,383.466653 598.500004,381.73332 598.500004,380.13332 C598.500004,378.399987 597.300004,374.266654 595.833337,370.933321 C587.433338,351.866655 571.700005,345.999989 543.83334,351.466655 C543.83334,351.466655 543.83334,351.466655 543.83334,351.466655 ZM566.900006,363.066655C566.633339,363.999988 567.966672,364.666655 569.966672,364.666655 C572.100005,364.666655 573.033339,365.199988 572.366672,366.266654 C571.700005,367.199988 571.966672,367.333321 573.033339,366.666654 C575.033339,365.466655 578.633338,369.199988 582.233338,376.266654 C585.166671,381.866654 590.766671,402.133319 589.833338,403.199986 C589.433338,403.466652 582.100005,402.799986 573.566672,401.599986 C551.166673,398.399986 519.433342,394.133319 507.966676,392.666653 C485.166677,389.73332 462.100012,400.666652 454.633346,417.999985 C453.033346,421.599985 450.900013,431.066651 449.833346,439.06665 C448.900013,446.933316 447.700013,455.199983 447.300013,457.333316 C446.900013,459.599982 445.96668,466.399982 445.16668,472.666648 C444.36668,478.933314 443.16668,487.866647 442.500013,492.666647 C441.700013,497.466647 439.833347,513.066646 438.36668,527.333312 C436.900013,541.599977 435.16668,557.866643 434.500014,563.333309 C433.96668,568.799976 433.033347,578.399975 432.500014,584.666641 C432.100014,590.933308 431.16668,597.733307 430.500014,599.999974 C429.566681,603.333307 426.366681,625.999972 424.500014,642.666638 C424.233348,644.799971 423.300014,651.199971 422.500014,656.666637 C421.566681,662.133304 420.500014,670.266636 420.100014,674.666636 C418.900015,684.799969 416.500015,685.599969 409.300015,678.399969 C404.233349,673.466636 399.833349,662.933303 399.833349,656.133304 C399.833349,652.799971 395.966683,633.999972 395.033349,632.399972 C394.633349,631.866639 392.233349,621.733306 389.83335,609.86664 C387.300016,598.133307 384.900017,587.999975 384.63335,587.466641 C384.23335,586.933308 383.566683,583.599975 383.03335,579.999975 C382.63335,576.399975 381.966683,572.133309 381.700017,570.666642 C381.43335,569.199976 380.63335,564.399976 379.83335,559.999976 C377.83335,548.399977 377.83335,548.13331 377.03335,546.666644 C376.63335,545.866644 376.500017,543.999977 376.63335,542.266644 C376.63335,540.666644 376.100017,539.333311 375.43335,539.333311 C374.366684,539.333311 374.366684,538.933311 375.43335,537.866644 C377.03335,536.266644 376.100017,530.933311 374.366684,532.133311 C373.700017,532.533311 373.166684,532.133311 373.166684,531.466645 C373.166684,530.666645 373.700017,529.999978 374.366684,529.999978 C374.900017,529.999978 373.700017,522.666645 371.566684,513.599979 C369.566684,504.666646 367.433351,495.466647 367.033351,493.333314 C366.633351,491.066647 365.966684,488.399981 365.433351,487.333314 C365.033351,486.266647 364.500018,483.866647 364.366684,481.999981 C363.700018,474.266648 362.100018,467.466648 361.166685,467.999982 C360.633351,468.399982 360.100018,467.333315 360.233351,465.599982 C360.233351,463.999982 359.033351,456.133316 357.433352,448.26665 C355.833352,440.399983 354.500018,431.999984 354.500018,429.733317 C354.500018,422.666651 357.433352,415.333318 362.366685,409.999985 C367.966684,403.999986 380.500017,399.199986 399.166682,395.999986 C417.433348,392.799986 429.566681,389.999986 431.433347,388.399987 C432.633347,387.466653 433.16668,387.466653 433.16668,388.399987 C433.16668,389.599986 440.900013,388.399987 446.500013,386.399987 C447.566679,385.866653 449.033346,385.73332 449.566679,385.866653 C450.633346,385.999987 455.833346,385.199987 473.833345,381.999987 C478.233344,381.199987 483.966677,380.266654 486.50001,379.866654 C489.033344,379.466654 492.766677,378.266654 494.766677,377.199987 C496.766677,376.133321 498.90001,375.466654 499.433343,375.599987 C501.566676,376.133321 509.166676,373.733321 509.166676,372.533321 C509.166676,371.866654 509.833342,371.333321 510.633342,371.333321 C511.300009,371.333321 511.566676,371.999987 511.033342,372.799987 C510.500009,373.733321 511.033342,373.999987 512.633342,373.599987 C514.100009,373.199987 517.166675,372.533321 519.566675,371.999987 C522.100008,371.466654 523.566675,370.533321 522.900008,369.599988 C522.366675,368.666654 522.900008,368.533321 524.366675,369.066654 C526.900008,370.133321 536.633341,367.733321 539.566674,365.466655 C540.633341,364.799988 546.900007,363.999988 553.566673,363.866655 C568.100006,363.466655 567.833339,363.466655 564.500006,361.866655 C564.500006,361.866655 561.833339,360.666655 561.833339,360.666655 C561.833339,360.666655 564.500006,361.066655 564.500006,361.066655 C565.966672,361.333321 567.033339,362.266655 566.900006,363.066655 C566.900006,363.066655 566.900006,363.066655 566.900006,363.066655 ZM644.900001,381.866654C644.366668,386.266653 639.300001,387.466653 637.300002,383.466653 C636.100002,381.33332 636.366668,380.399987 638.633335,378.799987 C642.500001,376.133321 645.433334,377.466654 644.900001,381.866654 C644.900001,381.866654 644.900001,381.866654 644.900001,381.866654 ZM424.500014,388.666653C424.100014,389.33332 423.033348,389.999986 422.366681,389.999986 C421.566681,389.999986 421.433348,389.33332 421.833348,388.666653 C422.233348,387.866653 423.300014,387.33332 423.966681,387.33332 C424.766681,387.33332 424.900014,387.866653 424.500014,388.666653 C424.500014,388.666653 424.500014,388.666653 424.500014,388.666653 ZM413.833348,391.33332C413.433348,391.999986 411.966682,392.666653 410.766682,392.666653 C408.766682,392.666653 408.766682,392.399986 410.500015,391.33332 C413.166682,389.599986 414.900015,389.599986 413.833348,391.33332 C413.833348,391.33332 413.833348,391.33332 413.833348,391.33332 ZM523.166675,408.799985C523.166675,409.199985 529.833341,410.133319 536.500008,410.533319 C540.233341,410.799985 544.23334,411.466652 545.566674,411.999985 C546.900007,412.533318 548.366673,412.666652 548.766673,412.133318 C549.166673,411.733318 550.366673,411.999985 551.300007,412.799985 C552.23334,413.599985 553.83334,413.733318 554.766673,413.199985 C557.566673,411.466652 566.500006,411.199985 566.500006,412.799985 C566.500006,413.599985 565.300006,413.999985 563.833339,413.599985 C562.366673,413.199985 561.166673,413.466652 561.166673,414.133318 C561.166673,414.799985 562.366673,415.333318 563.700006,415.333318 C565.166672,415.333318 567.300006,415.733318 568.633339,416.266652 C570.500005,416.933318 570.766672,416.666651 570.100006,414.666652 C569.166672,412.533318 569.300006,412.533318 572.100005,414.266652 C573.833339,415.466652 578.633338,416.399985 583.166671,416.399985 C591.833338,416.666651 607.700003,419.199985 609.833336,420.799985 C611.033336,421.733318 617.300003,422.533318 633.166668,423.999984 C636.500002,424.266651 639.166668,424.666651 639.166668,424.799984 C639.166668,425.466651 648.633334,426.399984 657.566667,426.533318 C665.7,426.666651 667.833333,427.066651 667.833333,428.666651 C667.833333,430.266651 668.1,430.266651 669.033333,428.799984 C669.833333,427.733317 671.166666,427.333318 673.166666,427.999984 C676.899999,429.199984 677.699999,429.333317 684.899999,430.666651 C687.966665,431.199984 690.499998,432.133317 690.499998,432.666651 C690.499998,433.199984 691.966665,434.133317 693.833331,434.533317 C699.566664,435.999984 704.766664,443.06665 707.166664,452.799983 C708.366664,457.866649 709.033331,462.533315 708.499997,463.333315 C707.966664,464.133315 708.233331,465.599982 709.166664,466.666649 C710.366664,467.999982 710.23333,469.466648 708.633331,472.533315 C707.433331,474.666648 706.899997,477.466648 707.299997,478.533314 C707.833331,479.733314 707.566664,481.466648 706.766664,482.399981 C705.566664,483.866647 704.233331,490.666647 703.033331,499.99998 C702.766664,502.133313 701.966664,509.733313 701.166664,516.666646 C700.366664,523.599978 698.499998,537.066644 697.166665,546.666644 C694.499998,565.333309 692.899998,576.666642 692.499998,581.999975 C692.366665,583.866642 691.166665,591.866641 689.966665,599.999974 C688.633332,607.999973 687.433332,618.533306 687.033332,623.333306 C686.633332,628.133306 685.699999,634.399972 685.033332,637.199972 C684.233332,640.133305 683.033332,647.066638 682.499999,652.533304 C681.833332,658.133304 680.633332,667.066637 679.833332,672.533303 C679.033332,677.999969 678.633332,683.733302 679.033332,685.466635 C679.433332,687.066635 679.299999,688.666635 678.633332,688.933302 C677.966666,689.199969 677.166666,692.933302 676.633332,697.333301 C676.099999,701.733301 675.166666,707.733301 674.366666,710.666634 C673.566666,713.599967 672.766666,717.199967 672.633333,718.5333 C672.499999,719.999967 669.433333,723.999967 665.833333,727.466633 C658.1,735.066633 652.500001,736.666632 636.500002,735.733299 C630.633335,735.333299 623.033336,734.933299 619.566669,734.799966 C616.233336,734.799966 613.700003,734.133299 614.100003,733.466633 C614.500003,732.933299 612.36667,732.666633 609.300003,733.066633 C606.36667,733.333299 603.833337,733.199966 603.833337,732.799966 C603.833337,732.266633 602.76667,731.866633 601.56667,731.733299 C600.233337,731.599966 597.433337,731.199966 595.166671,730.799966 C589.433338,729.599966 582.900005,728.799966 574.500005,728.1333 C570.500005,727.866633 566.233339,727.199966 565.166672,726.799966 C563.566673,726.266633 555.83334,725.7333 530.500008,724.399966 C529.433341,724.266633 527.966675,723.466633 527.166675,722.5333 C526.500008,721.599967 522.766675,720.666633 518.900009,720.399967 C513.033342,719.999967 512.233342,720.266633 513.566676,721.999967 C514.366675,723.066633 513.700009,722.799967 512.100009,721.466633 C510.366676,719.999967 508.100009,718.666633 506.766676,718.666633 C505.566676,718.5333 500.366676,717.999967 495.166677,717.466634 C490.10001,716.9333 484.900011,716.266634 483.833344,715.999967 C482.766677,715.7333 477.033344,715.199967 471.033345,714.666634 C465.166678,714.266634 459.166679,713.7333 457.700012,713.3333 C447.833346,711.066634 445.033346,709.999967 441.300013,707.199968 C438.900013,705.466634 436.633347,702.133301 435.833347,699.466635 C433.16668,689.599969 434.633347,663.466637 440.633347,617.999973 C441.833346,609.599973 442.900013,601.199974 443.033346,599.333307 C443.300013,597.466641 444.36668,590.933308 445.56668,584.666641 C446.76668,578.399975 448.366679,567.066643 449.166679,559.33331 C450.100013,551.599977 451.300013,542.399977 451.966679,538.933311 C452.633346,535.466644 453.166679,528.533311 453.166679,523.599978 C453.166679,515.466646 454.500012,505.866646 458.500012,484.133314 C459.300012,479.733314 459.566679,475.333315 459.166679,474.266648 C458.766679,473.199981 459.033345,471.599982 459.700012,470.799982 C461.166679,469.066648 464.100012,438.26665 463.033345,436.533317 C462.633345,435.86665 463.033345,435.333317 463.700012,435.333317 C464.500012,435.333317 465.166678,433.599984 465.166678,431.599984 C465.166678,426.399984 469.700011,417.599985 474.500011,413.599985 C477.033344,411.333318 477.833344,409.999985 476.766678,409.466652 C475.966678,409.066652 476.633344,409.066652 478.500011,409.333319 C480.366678,409.733319 483.966677,409.466652 486.50001,408.666652 C490.10001,407.733319 523.166675,407.866652 523.166675,408.799985 C523.166675,408.799985 523.166675,408.799985 523.166675,408.799985 ZM671.699999,416.533318C673.033333,417.466651 672.633333,417.733318 670.1,417.599985 C668.233333,417.466651 667.033333,416.933318 667.433333,416.266652 C668.233333,415.066652 669.433333,415.066652 671.699999,416.533318 C671.699999,416.533318 671.699999,416.533318 671.699999,416.533318 ZM446.100013,539.599977C445.700013,540.666644 445.300013,540.266644 445.300013,538.799978 C445.16668,537.333311 445.56668,536.533311 445.96668,537.066644 C446.36668,537.466644 446.500013,538.666644 446.100013,539.599977 C446.100013,539.599977 446.100013,539.599977 446.100013,539.599977 ZM698.499998,621.866639C698.499998,622.666639 697.966665,623.599972 697.166665,623.999972 C696.499998,624.399972 695.833331,623.866639 695.833331,622.799973 C695.833331,621.599973 696.499998,620.666639 697.166665,620.666639 C697.966665,620.666639 698.499998,621.199973 698.499998,621.866639 C698.499998,621.866639 698.499998,621.866639 698.499998,621.866639 ZM694.499998,648.666638C694.499998,649.333304 693.833331,649.999971 693.033332,649.999971 C692.366665,649.999971 692.099998,649.333304 692.499998,648.666638 C692.899998,647.866638 693.566665,647.333304 693.966665,647.333304 C694.233331,647.333304 694.499998,647.866638 694.499998,648.666638 C694.499998,648.666638 694.499998,648.666638 694.499998,648.666638 ZM693.166665,653.999971C693.166665,654.666637 692.899998,655.333304 692.633332,655.333304 C692.233332,655.333304 691.566665,654.666637 691.166665,653.999971 C690.766665,653.199971 691.033332,652.666637 691.699998,652.666637 C692.499998,652.666637 693.166665,653.199971 693.166665,653.999971 C693.166665,653.999971 693.166665,653.999971 693.166665,653.999971 ZM691.433332,667.59997C691.033332,668.533303 690.766665,667.866637 690.766665,665.99997 C690.766665,664.133303 691.033332,663.466637 691.433332,664.266637 C691.699998,665.19997 691.699998,666.79997 691.433332,667.59997 C691.433332,667.59997 691.433332,667.59997 691.433332,667.59997 ZM526.100008,724.1333C525.700008,724.5333 524.500008,724.666633 523.566675,724.266633 C522.500008,723.866633 522.900008,723.466633 524.366675,723.466633 C525.833341,723.3333 526.633341,723.7333 526.100008,724.1333 C526.100008,724.1333 526.100008,724.1333 526.100008,724.1333 ZM665.833333,742.666632C663.7,744.533299 661.3,745.999965 660.633333,745.999965 C659.033334,745.999965 660.233333,744.799965 664.766667,741.866632 C670.1,738.533299 670.5,738.933299 665.833333,742.666632 C665.833333,742.666632 665.833333,742.666632 665.833333,742.666632 Z" fill="#ffffff"/>
				</g>
				<g>
					<path d="M550.63334,473.599981C539.700007,476.399981 528.766675,482.799981 520.766675,491.333314 C511.700009,500.79998 508.633343,509.066646 508.633343,523.999978 C508.500009,533.466645 509.033342,535.733311 512.766676,543.333311 C517.300009,552.53331 521.566675,557.33331 529.166675,561.866643 C543.03334,569.866642 552.23334,574.399975 561.166673,577.599975 C566.633339,579.466642 573.433339,582.133308 576.100005,583.466642 C578.900005,584.933308 582.100005,585.999975 583.300005,585.999975 C584.633338,585.999975 588.500004,588.933308 592.100004,592.666641 C597.566671,598.266641 598.500004,599.999974 598.500004,604.399974 C598.500004,610.799973 594.233337,617.46664 587.833338,621.199973 C580.900005,625.333306 563.300006,625.066639 553.166673,620.666639 C538.633341,614.533306 534.100008,609.199973 532.500008,596.533307 C532.500008,596.533307 531.700008,590.533308 531.700008,590.533308 C531.700008,590.533308 515.033342,588.133308 515.033342,588.133308 C502.233343,586.266641 497.833343,586.133308 496.766677,587.199975 C494.50001,589.466641 494.50001,608.26664 496.633343,614.399973 C497.566676,617.199973 499.30001,620.399973 500.50001,621.466639 C501.566676,622.666639 502.90001,624.933306 503.300009,626.799972 C505.300009,634.799972 520.633342,645.333305 539.033341,651.599971 C545.700007,653.866637 553.966673,655.866637 557.43334,656.133304 C561.033339,656.266637 564.366673,656.933304 565.166672,657.333304 C565.833339,657.733304 566.500006,657.466637 566.500006,656.799971 C566.500006,655.999971 567.166672,655.333304 567.966672,655.333304 C568.633339,655.333304 568.900006,655.999971 568.366672,656.933304 C567.700006,657.99997 571.033339,658.133304 581.300005,657.59997 C592.366671,656.933304 597.300004,655.866637 606.100003,652.533304 C612.100003,650.133304 618.766669,646.666638 620.766669,644.666638 C632.766668,633.199972 637.166668,625.333306 637.700001,614.66664 C637.966668,610.66664 638.500001,606.933307 639.033335,606.399974 C640.500001,604.933307 639.833335,603.199974 638.233335,604.133307 C636.900002,604.933307 636.900002,604.799974 638.100001,603.199974 C639.166668,601.999974 639.433335,599.066641 639.033335,595.866641 C637.300002,583.733308 631.166669,573.599975 620.500003,565.333309 C612.633336,559.199976 593.566671,549.33331 583.166671,545.999977 C572.633339,542.533311 558.500006,535.066644 555.966673,531.466645 C548.63334,521.199979 553.166673,509.733313 565.966672,506.133313 C572.766672,504.266646 589.833338,506.933313 596.233337,510.933313 C603.16667,515.333312 604.633337,517.066646 606.500003,524.666645 C607.433337,527.999978 608.36667,531.733311 608.76667,532.933311 C609.16667,534.799978 610.76667,535.333311 615.566669,535.333311 C619.033336,535.333311 623.966669,535.866644 626.500002,536.533311 C632.500002,538.133311 642.900001,539.333311 641.966668,538.399978 C641.566668,537.999978 642.233335,536.799978 643.433334,535.599978 C646.366668,532.666645 645.166668,518.266645 641.033335,507.333313 C633.833335,487.999981 609.96667,474.666648 579.833338,473.199981 C573.566672,472.799981 566.100006,472.399981 563.166673,472.133315 C560.100006,471.866648 554.500006,472.533315 550.63334,473.599981 C550.63334,473.599981 550.63334,473.599981 550.63334,473.599981 ZM555.03334,653.866637C555.566673,654.533304 554.63334,654.799971 553.166673,654.399971 C550.100007,653.599971 549.700007,652.666637 552.366673,652.666637 C553.43334,652.666637 554.63334,653.199971 555.03334,653.866637 C555.03334,653.866637 555.03334,653.866637 555.03334,653.866637 Z" fill="#ffffff"/>
				</g>
			</g>
		</g>
	</g>
</g></g></svg>